#!OML:ASF H:\ManfredETheater\Project 1\Capture day 1\Session 1\subject.ASF
:FULLY-SPECIFIED
:DEGREES
172
root 5.73342 11.5818 -7.56224 -50.0795 -80.6264 68.9539
lowerback 67.0865 -2.00584 4.76993
upperback 11.0047 -1.88083 -0.88842
thorax -9.0603 -1.63322 -1.99641
lowerneck -14.6291 35.5954 -1.57515
upperneck 3.7037 58.1958 -1.15063
head 30.8966 -44.0125 146.556
rclavicle 3.81667e-014 2.45002e-014
rhumerus 7.52552 -9.91678 -40.5174
rradius 72.3815
rwrist -17.6315
rhand -28.7834 3.94726
rfingers 7.12502
rthumb -2.14255 -26.0217
lclavicle 3.81667e-014 2.45002e-014
lhumerus -42.8537 10.597 77.9623
lradius 129.174
lwrist -2.9608
lhand -27.1105 4.21236
lfingers 7.12502
lthumb -0.526802 34.1915
rfemur -90.2285 -27.9667 15.4356
rtibia 117.43
rfoot -33.5148 -11.8823
rtoes -30.4234
lfemur -61.4967 25.2444 16.4891
ltibia 75.1625
lfoot -10.5194 -21.5453
ltoes -17.6625
173
root 5.72194 11.5397 -7.36059 -47.2263 -80.937 66.4854
lowerback 66.9163 -2.07911 4.99412
upperback 11.0177 -1.78938 -0.749112
thorax -9.03492 -1.60073 -1.97417
lowerneck -14.8974 35.6516 -1.53842
upperneck 3.56023 58.1275 -1.23962
head 30.8826 -44.0788 146.483
rclavicle 3.33958e-014 2.65874e-014
rhumerus 7.89931 -10.2419 -40.8803
rradius 72.7382
rwrist -18.4397
rhand -29.5494 3.62418
rfingers 7.12502
rthumb -2.88233 -26.3361
lclavicle 3.33958e-014 2.65874e-014
lhumerus -43.0445 10.2551 78.1583
lradius 129.06
lwrist -3.42038
lhand -27.2595 4.45764
lfingers 7.12502
lthumb -0.67076 34.4363
rfemur -90.1531 -28.3944 14.6716
rtibia 117.173
rfoot -33.7421 -11.6753
rtoes -31.0382
lfemur -61.2006 24.8196 17.1461
ltibia 72.1763
lfoot -8.93503 -22.4264
ltoes -19.7399
174
root 5.70933 11.4957 -7.15393 -44.3747 -81.2796 63.9998
lowerback 66.7553 -2.10106 5.18824
upperback 11.0336 -1.66929 -0.626748
thorax -9.00616 -1.55598 -1.97182
lowerneck -15.1245 35.7278 -1.46331
upperneck 3.42999 58.0693 -1.30958
head 30.8581 -44.1148 146.429
rclavicle 1.59028e-014 3.52843e-015
rhumerus 8.07521 -10.4755 -41.2248
rradius 73.1273
rwrist -19.2679
rhand -30.1916 3.32391
rfingers 7.12502
rthumb -3.50246 -26.6271
lclavicle 1.59028e-014 3.52843e-015
lhumerus -43.2004 9.88639 78.3153
lradius 128.932
lwrist -4.02466
lhand -27.4449 4.65955
lfingers 7.12502
lthumb -0.84976 34.6376
rfemur -89.993 -28.7401 13.8546
rtibia 116.878
rfoot -33.9511 -11.5025
rtoes -31.6613
lfemur -61.058 24.5949 17.5635
ltibia 69.6535
lfoot -7.4431 -22.9142
ltoes -23.0846
175
root 5.69603 11.4502 -6.94187 -41.5327 -81.6509 61.5098
lowerback 66.5858 -2.08011 5.35282
upperback 11.0579 -1.53085 -0.526455
thorax -8.96873 -1.50268 -1.99112
lowerneck -15.3355 35.817 -1.37174
upperneck 3.31066 58.0297 -1.36925
head 30.8277 -44.1158 146.384
rclavicle 3.18055e-015 7.0817e-015
rhumerus 8.0663 -10.6086 -41.5347
rradius 73.5374
rwrist -20.0571
rhand -30.6911 3.05463
rfingers 7.12502
rthumb -3.98488 -26.8879
lclavicle 3.18055e-015 7.0817e-015
lhumerus -43.3398 9.52693 78.4343
lradius 128.8
lwrist -4.85216
lhand -27.6512 4.77523
lfingers 7.12502
lthumb -1.04901 34.7524
rfemur -89.7845 -28.9983 12.9875
rtibia 116.558
rfoot -34.0972 -11.3489
rtoes -32.2325
lfemur -61.1018 24.5703 17.7389
ltibia 67.713
lfoot -6.34291 -22.9718
ltoes -25.9582
176
root 5.68273 11.4041 -6.72456 -38.6803 -82.0597 58.9989
lowerback 66.3982 -2.01724 5.48241
upperback 11.0905 -1.37842 -0.446901
thorax -8.92344 -1.44285 -2.02635
lowerneck -15.5092 35.9187 -1.27424
upperneck 3.21023 58.02 -1.41769
head 30.8047 -44.1017 146.344
rclavicle 3.18055e-014 3.76448e-014
rhumerus 7.9003 -10.6296 -41.7981
rradius 73.9517
rwrist -20.8209
rhand -31.005 2.86828
rfingers 7.12502
rthumb -4.28799 -27.0683
lclavicle 3.18055e-014 3.76448e-014
lhumerus -43.4692 9.20659 78.505
lradius 128.685
lwrist -5.86337
lhand -27.8951 4.74617
lfingers 7.12502
lthumb -1.28456 34.722
rfemur -89.5514 -29.1427 12.0807
rtibia 116.217
rfoot -34.142 -11.2134
rtoes -32.6861
lfemur -61.3571 24.7635 17.689
ltibia 66.4618
lfoot -5.87228 -22.7078
ltoes -28.8669
177
root 5.67039 11.3578 -6.50219 -35.7023 -82.5034 56.3655
lowerback 66.1567 -1.92118 5.58133
upperback 11.1409 -1.21994 -0.387603
thorax -8.86043 -1.37925 -2.07595
lowerneck -15.663 36.0335 -1.18016
upperneck 3.12646 58.0513 -1.46081
head 30.7928 -44.0648 146.304
rclavicle -6.36111e-014 -1.62755e-014
rhumerus 7.60662 -10.5417 -42.0143
rradius 74.3432
rwrist -21.5014
rhand -31.1356 2.77073
rfingers 7.12502
rthumb -4.41407 -27.1633
lclavicle -6.36111e-014 -1.62755e-014
lhumerus -43.6119 8.93954 78.5425
lradius 128.635
lwrist -7.02108
lhand -28.2249 4.63135
lfingers 7.12502
lthumb -1.60316 34.6051
rfemur -89.3225 -29.1633 11.1434
rtibia 115.856
rfoot -34.0507 -11.1045
rtoes -33.0234
lfemur -61.8625 25.1821 17.4307
ltibia 65.9599
lfoot -6.12556 -22.2155
ltoes -31.1275
178
root 5.65968 11.3127 -6.27544 -32.5276 -82.9936 53.5205
lowerback 65.8826 -1.7857 5.64267
upperback 11.2044 -1.05151 -0.342883
thorax -8.78398 -1.31129 -2.13176
lowerneck -15.8 36.1614 -1.09797
upperneck 3.06203 58.1271 -1.4988
head 30.7908 -44.0002 146.262
rclavicle 2.8625e-014 -6.60959e-015
rhumerus 7.21397 -10.3476 -42.182
rradius 74.6894
rwrist -22.0953
rhand -31.0704 2.78053
rfingers 7.12502
rthumb -4.35113 -27.1548
lclavicle 2.8625e-014 -6.60959e-015
lhumerus -43.7828 8.73081 78.5582
lradius 128.715
lwrist -8.19485
lhand -28.6802 4.4693
lfingers 7.12502
lthumb -2.04283 34.4393
rfemur -89.0728 -29.0412 10.1753
rtibia 115.466
rfoot -33.8257 -10.9936
rtoes -33.2115
lfemur -62.6028 25.8162 17.0228
ltibia 66.2065
lfoot -7.14705 -21.664
ltoes -32.4709
179
root 5.6507 11.2695 -6.04442 -28.9504 -83.5256 50.2171
lowerback 65.6361 -1.62124 5.67421
upperback 11.2693 -0.876324 -0.310431
thorax -8.70578 -1.24146 -2.19143
lowerneck -15.9175 36.305 -1.0192
upperneck 3.01111 58.2448 -1.53456
head 30.8038 -43.9232 146.217
rclavicle -1.59028e-015 -1.88845e-014
rhumerus 6.74432 -10.0515 -42.3121
rradius 74.9711
rwrist -22.5472
rhand -30.8598 2.83973
rfingers 7.12502
rthumb -4.14779 -27.0996
lclavicle -1.59028e-015 -1.88845e-014
lhumerus -43.9873 8.57079 78.5606
lradius 128.996
lwrist -9.22271
lhand -29.2909 4.33171
lfingers 7.12502
lthumb -2.63269 34.2952
rfemur -88.7497 -28.8193 9.19074
rtibia 115.034
rfoot -33.4908 -10.8746
rtoes -33.3183
lfemur -63.5414 26.6134 16.5464
ltibia 67.1287
lfoot -8.72231 -21.2287
ltoes -32.7778
180
root 5.64311 11.2282 -5.80949 -24.7298 -84.0993 46.1785
lowerback 65.4705 -1.42096 5.67632
upperback 11.3232 -0.682959 -0.281784
thorax -8.6387 -1.16669 -2.24926
lowerneck -16.0081 36.465 -0.938203
upperneck 2.98031 58.4022 -1.56107
head 30.8333 -43.8279 146.163
rclavicle 7.31528e-014 2.64135e-014
rhumerus 6.20322 -9.67571 -42.4086
rradius 75.1786
rwrist -22.8788
rhand -30.4998 2.9389
rfingers 7.12502
rthumb -3.8001 -27.007
lclavicle 7.31528e-014 2.64135e-014
lhumerus -44.2399 8.43601 78.5666
lradius 129.556
lwrist -9.97226
lhand -30.008 4.28182
lfingers 7.12502
lthumb -3.32519 34.2356
rfemur -88.2973 -28.5017 8.18762
rtibia 114.547
rfoot -33.0802 -10.7348
rtoes -33.3837
lfemur -64.6171 27.5322 16.0864
ltibia 68.6036
lfoot -10.5809 -21.0295
ltoes -32.1349
181
root 5.63612 11.1893 -5.57114 -19.4992 -84.695 40.9921
lowerback 65.4573 -1.18756 5.65623
upperback 11.3521 -0.466946 -0.25571
thorax -8.597 -1.08643 -2.30723
lowerneck -16.0728 36.6406 -0.843057
upperneck 2.96706 58.5876 -1.57586
head 30.8779 -43.7154 146.095
rclavicle -2.38542e-014 5.90763e-015
rhumerus 5.58645 -9.25459 -42.4892
rradius 75.3038
rwrist -23.0871
rhand -30.0065 3.04264
rfingers 7.12502
rthumb -3.32371 -26.9112
lclavicle -2.38542e-014 5.90763e-015
lhumerus -44.5438 8.29332 78.5923
lradius 130.447
lwrist -10.3832
lhand -30.7726 4.37835
lfingers 7.12502
lthumb -4.06359 34.3193
rfemur -87.6414 -28.1109 7.16316
rtibia 113.99
rfoot -32.6387 -10.5867
rtoes -33.4836
lfemur -65.7538 28.514 15.7148
ltibia 70.4793
lfoot -12.4797 -21.1551
ltoes -30.9151
182
root 5.62934 11.1528 -5.32972 -12.7236 -85.2596 34.1146
lowerback 65.6092 -0.942755 5.63134
upperback 11.3525 -0.240323 -0.236719
thorax -8.58463 -1.00528 -2.37215
lowerneck -16.1097 36.8329 -0.721131
upperneck 2.96822 58.7899 -1.57658
head 30.9338 -43.5866 146.017
rclavicle 3.18055e-015 4.31735e-015
rhumerus 4.88958 -8.81883 -42.5798
rradius 75.3491
rwrist -23.1915
rhand -29.4068 3.11271
rfingers 7.12502
rthumb -2.74456 -26.8494
lclavicle 3.18055e-015 4.31735e-015
lhumerus -44.8832 8.11452 78.6274
lradius 131.667
lwrist -10.4874
lhand -31.4848 4.64273
lfingers 7.12502
lthumb -4.7513 34.5694
rfemur -86.7595 -27.6945 6.12646
rtibia 113.352
rfoot -32.2041 -10.4282
rtoes -33.6605
lfemur -66.9343 29.5029 15.4493
ltibia 72.6088
lfoot -14.1641 -21.6241
ltoes -29.4537
183
root 5.62164 11.1191 -5.08679 -4.25473 -85.7664 25.3912
lowerback 65.9431 -0.660253 5.57254
upperback 11.3225 0.00509205 -0.230527
thorax -8.60348 -0.920054 -2.44191
lowerneck -16.1248 37.0372 -0.56463
upperneck 2.97684 58.9924 -1.56457
head 30.9975 -43.4479 145.928
rclavicle 6.36111e-014 2.6867e-014
rhumerus 4.10134 -8.40714 -42.7095
rradius 75.3174
rwrist -23.2258
rhand -28.7176 3.15878
rfingers 7.12502
rthumb -2.07898 -26.8108
lclavicle 6.36111e-014 2.6867e-014
lhumerus -45.2505 7.87389 78.6761
lradius 133.172
lwrist -10.4159
lhand -32.0621 5.02827
lfingers 7.12502
lthumb -5.30866 34.9418
rfemur -85.6398 -27.237 5.0656
rtibia 112.624
rfoot -31.8113 -10.2566
rtoes -33.9111
lfemur -68.0834 30.4754 15.2928
ltibia 74.8628
lfoot -15.4765 -22.4696
ltoes -27.2732
184
root 5.61253 11.0882 -4.84284 5.92273 -86.163 14.8307
lowerback 66.4238 -0.338779 5.48066
upperback 11.2665 0.270236 -0.235678
thorax -8.64831 -0.82949 -2.51673
lowerneck -16.1138 37.2395 -0.375509
upperneck 2.99841 59.1658 -1.53098
head 31.0647 -43.3053 145.823
rclavicle 3.10104e-014 4.50993e-015
rhumerus 3.19483 -8.05133 -42.8759
rradius 75.2246
rwrist -23.23
rhand -27.9811 3.17103
rfingers 7.12502
rthumb -1.36769 -26.8043
lclavicle 3.10104e-014 4.50993e-015
lhumerus -45.6291 7.53776 78.7552
lradius 134.866
lwrist -10.3556
lhand -32.4533 5.46963
lfingers 7.12502
lthumb -5.68644 35.3733
rfemur -84.3132 -26.7592 3.98271
rtibia 111.804
rfoot -31.463 -10.1092
rtoes -34.2821
lfemur -69.1853 31.4205 15.1884
ltibia 77.1535
lfoot -16.4011 -23.5864
ltoes -26.6041
